<svg width="160" height="28" viewBox="0 0 180 28" fill="none" xmlns="http://www.w3.org/2000/svg">
<path d="M0.709961 27V1.16504H12.8145C17.7285 1.16504 20.1855 3.17041 20.1855 7.18115C20.1855 10.12 18.5837 12.2217 15.3799 13.4863C18.8005 14.1247 20.5107 16.0819 20.5107 19.3579C20.5107 24.4526 17.8188 27 12.4351 27H0.709961ZM12.2363 22.8447C14.3561 22.8447 15.416 21.7607 15.416 19.5928C15.416 16.9069 13.8322 15.564 10.6646 15.564H9.21924V12.4746C13.1938 11.8122 15.1812 10.1501 15.1812 7.48828C15.1812 6.04297 14.2899 5.32031 12.5073 5.32031H5.49756V22.8447H12.2363ZM28.6413 1.16504V22.8447H38.9031V27H23.8538V1.16504H28.6413ZM45.3535 27H40.4394L51.4057 1.16504H56.5547L67.7558 27H62.6069L59.6621 19.9541H51.0805L52.7246 15.7988H57.9277L53.8628 6.09717L45.3535 27ZM69.7258 25.916V21.5801C72.3153 22.5436 75.2421 23.0254 78.5061 23.0254C82.4686 23.0254 84.4499 21.7005 84.4499 19.0508C84.4499 17.1237 83.2334 16.1602 80.8005 16.1602H76.7536C71.4662 16.1602 68.8225 13.7513 68.8225 8.93359C68.8225 3.63411 72.5863 0.984375 80.114 0.984375C83.0046 0.984375 85.7447 1.40592 88.3342 2.24902V6.58496C85.7447 5.62142 83.0046 5.13965 80.114 5.13965C75.778 5.13965 73.6101 6.4043 73.6101 8.93359C73.6101 10.8607 74.6579 11.8242 76.7536 11.8242H80.8005C86.4252 11.8242 89.2375 14.2331 89.2375 19.0508C89.2375 24.4707 85.6604 27.1807 78.5061 27.1807C75.2421 27.1807 72.3153 26.7591 69.7258 25.916ZM109.455 1.16504V5.32031H102.047V27H97.2597V5.32031H89.8525V1.16504H109.455ZM129.13 1.16504V5.28418H116.194V11.7881H128.515V16.0698H116.14V22.8447H129.383V27H111.443V1.16504H129.13ZM153.664 25.916C151.436 26.7591 148.907 27.1807 146.077 27.1807C136.803 27.1807 132.165 22.6942 132.165 13.7212C132.165 5.22998 136.803 0.984375 146.077 0.984375C148.907 0.984375 151.436 1.40592 153.664 2.24902V6.58496C151.436 5.62142 149.027 5.13965 146.438 5.13965C140.235 5.13965 137.134 8.00016 137.134 13.7212C137.134 19.924 140.235 23.0254 146.438 23.0254C149.027 23.0254 151.436 22.5436 153.664 21.5801V25.916ZM157.441 27V1.16504H162.229V11.8242H174.966V1.16504H179.753V27H174.966V15.9795H162.229V27H157.441Z" fill="#FF7511"/>
</svg>
