<svg version="1.1" xmlns="http://www.w3.org/2000/svg" xmlns:xlink="http://www.w3.org/1999/xlink" x="0px" y="0px" width="41.87px" height="38px" viewBox="0 0 41.87 38" style="enable-background:new 0 0 41.87 38;" xml:space="preserve"><defs></defs><g><g><g><path class="arma-item-fill" d="M40.87,38H1.01C0.45,38,0,37.55,0,36.99V19.22c0-0.55,0.45-1.01,1.01-1.01h39.86c0.55,0,1.01,0.45,1.01,1.01v17.78C41.87,37.55,41.42,38,40.87,38z M1.61,36.39h38.65V19.82H1.61V36.39z"></path></g><g><path class="arma-item-fill" d="M33.36,35.62H8.34v-4.36h25.02V35.62z M9.95,34.01h21.8v-1.14H9.95V34.01z"></path></g><g><path class="arma-item-fill" d="M7.06,35.62H2.84v-4.36h4.23V35.62z M4.45,34.01h1.01v-1.14H4.45V34.01z"></path></g><g><path class="arma-item-fill" d="M7.06,30.29H2.84v-4.36h4.23V30.29z M4.45,28.68h1.01v-1.14H4.45V28.68z"></path></g><g><path class="arma-item-fill" d="M7.06,24.92H2.84v-4.36h4.23V24.92z M4.45,23.31h1.01v-1.14H4.45V23.31z"></path></g><g><path class="arma-item-fill" d="M12.56,24.92H8.34v-4.36h4.23V24.92z M9.95,23.31h1.01v-1.14H9.95V23.31z"></path></g><g><path class="arma-item-fill" d="M18.06,24.92h-4.23v-4.36h4.23V24.92z M15.45,23.31h1.01v-1.14h-1.01V23.31z"></path></g><g><path class="arma-item-fill" d="M23.56,24.92h-4.23v-4.36h4.23V24.92z M20.95,23.31h1.01v-1.14h-1.01V23.31z"></path></g><g><path class="arma-item-fill" d="M29.06,24.92h-4.23v-4.36h4.23V24.92z M26.45,23.31h1.01v-1.14h-1.01V23.31z"></path></g><g><path class="arma-item-fill" d="M34.57,24.92h-4.23v-4.36h4.23V24.92z M31.95,23.31h1.01v-1.14h-1.01V23.31z"></path></g><g><path class="arma-item-fill" d="M38.79,30.29h-8.45v-4.36h8.45V30.29z M31.95,28.68h5.23v-1.14h-5.23V28.68z"></path></g><g><path class="arma-item-fill" d="M12.56,30.29H8.34v-4.36h4.23V30.29z M9.95,28.68h1.01v-1.14H9.95V28.68z"></path></g><g><path class="arma-item-fill" d="M18.06,30.29h-4.23v-4.36h4.23V30.29z M15.45,28.68h1.01v-1.14h-1.01V28.68z"></path></g><g><path class="arma-item-fill" d="M23.56,30.29h-4.23v-4.36h4.23V30.29z M20.95,28.68h1.01v-1.14h-1.01V28.68z"></path></g><g><path class="arma-item-fill" d="M29.06,30.29h-4.23v-4.36h4.23V30.29z M26.45,28.68h1.01v-1.14h-1.01V28.68z"></path></g><g><path class="arma-item-fill" d="M38.79,35.62h-4.23v-4.36h4.23V35.62z M36.18,34.01h1.01v-1.14h-1.01V34.01z"></path></g><g><path class="arma-item-fill" d="M11.26,19.02H9.65v-1.11H5.76v1.11H4.15v-1.71c0-0.55,0.45-1.01,1.01-1.01h5.1c0.55,0,1.01,0.45,1.01,1.01V19.02z"></path></g><g><path class="arma-item-fill" d="M8.51,17.1H6.9v-1.54c0-1.29,1.08-2.35,2.41-2.35h23.65c0.44,0,0.8-0.36,0.8-0.8v-0.8c0-0.44-0.36-0.8-0.8-0.8h-11.2c-1.33,0-2.41-1.08-2.41-2.41V6.64h1.61v1.74c0,0.44,0.36,0.8,0.8,0.8h11.2c1.33,0,2.41,1.08,2.41,2.41v0.8c0,1.33-1.08,2.41-2.41,2.41H9.31c-0.44,0-0.8,0.34-0.8,0.74V17.1z"></path></g><g><path class="arma-item-fill" d="M21.35,7.45h-2.41c-1.44,0-2.62-1.17-2.62-2.62V0h7.65v4.83C23.97,6.27,22.79,7.45,21.35,7.45z M17.93,1.61v3.22c0,0.55,0.45,1.01,1.01,1.01h2.41c0.55,0,1.01-0.45,1.01-1.01V1.61H17.93z"></path></g></g><g><rect x="17.12" y="2.92" class="arma-item-fill" width="3.02" height="1.61"></rect></g></g></svg>