<svg width="36" height="46" viewBox="0 0 36 46" fill="none" xmlns="http://www.w3.org/2000/svg">
<g clip-path="url(#clip0)">
<path d="M19.7898 45.4327C19.5254 44.482 19.6068 31.7707 19.8915 29.2867C20.4406 24.5334 20.9491 22.9234 22.2712 21.758C23.4712 20.7 24.7118 18.7834 25.2203 17.1734C26.644 12.6654 24.2644 9.29203 18.3457 7.39069L17.2881 7.03803L16.2101 7.39069C13.6271 8.21869 11.1254 9.78269 10.1898 11.1627C9.07116 12.8034 8.86777 15.4714 9.66099 17.48C10.2508 18.9214 11.5322 20.7307 12.7118 21.7427C14.0339 22.8927 14.583 24.0427 15.3762 27.3547C15.661 28.5354 16.0068 30.0534 16.1695 30.6974C16.4339 31.7707 16.4135 32.0007 16.0474 33.3807C15.5593 35.1747 14.644 37.2907 14.2983 37.3674C13.4237 37.582 9.72201 32.936 8.58302 30.2067C7.81014 28.3207 7.85082 28.2134 9.07116 28.9187C10.0474 29.486 11.3491 29.578 11.8983 29.1334C12.8542 28.336 12 25.1314 10.3322 23.2914C9.07116 21.896 7.93218 21.7274 6.61014 22.7394C6.14234 23.092 5.71523 23.4907 5.65421 23.6134C5.51184 23.9354 4.27116 23.1994 3.3559 22.264C1.8915 20.7614 -0.223757 17.1274 0.0406496 16.5754C0.0609886 16.4834 0.772853 16.8207 1.58641 17.3114C3.15251 18.262 4.5559 18.7067 5.93895 18.7067H6.75251L6.61014 18.0627C6.14234 15.7627 4.6576 14.4287 1.70845 13.708C1.15929 13.57 0.63048 13.4014 0.549124 13.34C0.183023 13.0947 1.72879 11.2394 4.25082 8.81669L5.69489 7.43669V5.82669C5.71523 4.27803 5.91862 3.00536 6.18302 2.80603C6.24404 2.76003 6.71184 3.00536 7.22031 3.35803C8.13556 4.00203 9.23387 4.44669 9.86438 4.44669C10.0474 4.44669 11.0237 3.87936 12.061 3.20469C13.0983 2.51469 14.6847 1.50269 15.6203 0.966027L17.2881 -0.0306396L19.2813 1.04269C21.6 2.30003 22.4542 2.80603 23.8169 3.74136C24.7118 4.35469 24.8745 4.41603 25.444 4.29336C26.1559 4.14003 27.783 3.45003 27.9661 3.22003C28.2101 2.92869 28.8813 3.06669 29.0847 3.43469C29.1864 3.63403 29.3288 4.64603 29.4101 5.68869L29.5525 7.59003L31.0373 8.97003C32.8068 10.6414 34.5762 12.558 34.5762 12.8187C34.5762 12.926 34.0474 13.2327 33.4169 13.4934C30.8745 14.5667 29.5729 15.7167 28.983 17.4034C28.4949 18.86 28.5356 19.0134 29.4712 19.0134C31.0169 19.0134 32.644 18.3694 34.8406 16.8974C35.4101 16.514 35.9186 16.284 35.9593 16.376C36.244 17.0354 32.8474 22.4327 30.9559 24.3494L30.4474 24.8554L29.7762 23.966C27.4779 20.884 25.3627 21.8347 23.1051 26.9867C21.8237 29.9 21.722 31.924 22.7796 33.2274C23.2271 33.7947 24.5288 34.3467 25.4034 34.3467H26.0135L24.9966 35.3587C23.1864 37.168 22.4745 38.594 21.4373 42.4274C20.8271 44.7734 20.339 46 20.0339 46C19.9932 46 19.8712 45.7394 19.7898 45.4327Z" fill="#CD0E2F"/>
<path d="M17.0034 20.3014C16.4949 18.9674 15.3559 17.2961 14.1559 16.1307L13.1796 15.1647L13.7084 14.5974C14.4406 13.8154 17.044 11.6074 17.4508 11.4387C17.7152 11.3314 18.0813 11.5461 19.1593 12.4354C20.9695 13.9074 21.6406 14.7507 21.4983 15.3181C21.4373 15.5634 20.9695 16.2687 20.461 16.8821C19.9729 17.5107 19.2203 18.6454 18.8135 19.4274C18.4067 20.1941 17.9186 20.9301 17.7356 21.0681C17.4101 21.2827 17.3491 21.2214 17.0034 20.3014Z" fill="#CD0E2F"/>
</g>
<defs>
<clipPath id="clip0">
<rect width="36" height="46" fill="white"/>
</clipPath>
</defs>
</svg>
