<svg width="40" height="52" viewBox="0 0 40 52" fill="none" xmlns="http://www.w3.org/2000/svg">
<g clip-path="url(#clip0)">
<path d="M21.9881 51.3596C21.6943 50.285 21.7847 35.9156 22.1011 33.1076C22.7113 27.7343 23.2763 25.9143 24.7452 24.597C26.0785 23.401 27.4571 21.2343 28.022 19.4143C29.6039 14.3183 26.9599 10.505 20.3836 8.35564L19.2085 7.95697L18.0107 8.35564C15.1407 9.29164 12.361 11.0596 11.3215 12.6196C10.0785 14.4743 9.85253 17.4903 10.7339 19.761C11.3893 21.3903 12.813 23.4356 14.1237 24.5796C15.5926 25.8796 16.2028 27.1796 17.0842 30.9236C17.4006 32.2583 17.7847 33.9743 17.9655 34.7023C18.2593 35.9156 18.2367 36.1756 17.8299 37.7356C17.2876 39.7636 16.2706 42.1556 15.8864 42.2423C14.9147 42.485 10.8017 37.233 9.53615 34.1476C8.67739 32.0156 8.72259 31.8943 10.0785 32.6916C11.1633 33.333 12.6096 33.437 13.2198 32.9343C14.2819 32.033 13.3328 28.4103 11.4797 26.3303C10.0785 24.753 8.81299 24.5623 7.34406 25.7063C6.82428 26.105 6.34971 26.5556 6.28191 26.6943C6.12372 27.0583 4.74519 26.2263 3.72824 25.169C2.10112 23.4703 -0.249162 19.3623 0.0446237 18.7383C0.0672226 18.6343 0.858183 19.0156 1.76214 19.5703C3.50225 20.645 5.06157 21.1476 6.5983 21.1476H7.50225L7.34406 20.4196C6.82428 17.8196 5.17457 16.3116 1.89773 15.497C1.28756 15.341 0.699991 15.1503 0.609595 15.081C0.202816 14.8036 1.92033 12.7063 4.72259 9.96764L6.32711 8.40764V6.58764C6.34971 4.83697 6.5757 3.39831 6.86948 3.17297C6.93728 3.12097 7.45705 3.39831 8.02203 3.79697C9.03897 4.52497 10.2593 5.02764 10.9599 5.02764C11.1633 5.02764 12.248 4.38631 13.4006 3.62364C14.5531 2.84364 16.3158 1.69964 17.3554 1.09298L19.2085 -0.0336914L21.4232 1.17964C23.9994 2.60097 24.9486 3.17297 26.4627 4.23031C27.4571 4.92364 27.6378 4.99297 28.2706 4.85431C29.0616 4.68097 30.8695 3.90097 31.0729 3.64097C31.3441 3.31164 32.0898 3.46764 32.3158 3.88364C32.4288 4.10897 32.587 5.25297 32.6774 6.43164L32.8356 8.58097L34.4853 10.141C36.4514 12.0303 38.4175 14.197 38.4175 14.4916C38.4175 14.613 37.8299 14.9596 37.1294 15.2543C34.3045 16.4676 32.8582 17.7676 32.2028 19.6743C31.6604 21.321 31.7056 21.4943 32.7452 21.4943C34.4627 21.4943 36.2706 20.7663 38.7113 19.1023C39.3441 18.669 39.909 18.409 39.9542 18.513C40.2706 19.2583 36.4966 25.3596 34.3949 27.5263L33.8299 28.0983L33.0842 27.093C30.5305 23.609 28.1802 24.6836 25.6717 30.5076C24.248 33.801 24.135 36.089 25.3102 37.5623C25.8073 38.2036 27.2537 38.8276 28.2254 38.8276H28.9034L27.7734 39.9716C25.7621 42.017 24.9712 43.629 23.8186 47.9623C23.1407 50.6143 22.5983 52.001 22.2593 52.001C22.2141 52.001 22.0785 51.7063 21.9881 51.3596Z" fill="#FF7511"/>
<path d="M18.8926 22.9495C18.3277 21.4415 17.0621 19.5521 15.7288 18.2348L14.644 17.1428L15.2316 16.5015C16.0452 15.6175 18.9378 13.1215 19.3898 12.9308C19.6836 12.8095 20.0904 13.0521 21.2881 14.0575C23.2994 15.7215 24.0452 16.6748 23.887 17.3161C23.8192 17.5935 23.2994 18.3908 22.7344 19.0841C22.1921 19.7948 21.3559 21.0775 20.9039 21.9615C20.452 22.8281 19.9096 23.6601 19.7062 23.8161C19.3446 24.0588 19.2768 23.9895 18.8926 22.9495Z" fill="#FF7511"/>
</g>
<defs>
<clipPath id="clip0">
<rect width="40" height="52" fill="white"/>
</clipPath>
</defs>
</svg>
