<svg width="52" height="44" viewBox="0 0 52 44" fill="none" xmlns="http://www.w3.org/2000/svg">
<g clip-path="url(#clip0)">
<path d="M49.27 34.65H2.08C0.93 34.65 0 33.71 0 32.57V2.08C0 0.93 0.93 0 2.08 0H49.27C50.42 0 51.35 0.93 51.35 2.08V32.57C51.35 33.71 50.42 34.65 49.27 34.65ZM2.08 2C2.04 2 2 2.04 2 2.08V32.57C2 32.61 2.04 32.65 2.08 32.65H49.27C49.31 32.65 49.35 32.61 49.35 32.57V2.08C49.35 2.04 49.31 2 49.27 2H2.08Z" fill="#FF7511"/>
<path d="M50.7499 25.54H6.06995V27.54H50.7499V25.54Z" fill="#FF7511"/>
<path d="M47.53 28.87H45.37V30.87H47.53V28.87Z" fill="#FF7511"/>
<path d="M43.8401 28.87H41.6801V30.87H43.8401V28.87Z" fill="#FF7511"/>
<path d="M35.76 43.64H15.59V40.12L18.29 37.77H19.4L20.43 33.42L22.38 33.88L20.98 39.77H19.04L17.59 41.03V41.64H33.76V41.03L32.32 39.77H30.37L28.97 33.88L30.92 33.42L31.95 37.77H33.06L35.76 40.12V43.64Z" fill="#FF7511"/>
<path d="M28.1899 37.77H20.1899V39.77H28.1899V37.77Z" fill="#FF7511"/>
</g>
<defs>
<clipPath id="clip0">
<rect width="51.35" height="43.64" fill="white"/>
</clipPath>
</defs>
</svg>
