<svg width="46" height="35" viewBox="0 0 46 35" fill="none" xmlns="http://www.w3.org/2000/svg">
<g clip-path="url(#clip0)">
<path d="M13.95 32.18H5.26001V30.4H13.65L16.63 28.11H39.06L41.85 26.03V8.59L39.06 6.51H16.63L13.65 4.22H5.26001V2.44H14.25L17.23 4.74H39.65L43.62 7.7V26.92L39.65 29.88H17.23L14.25 32.18H13.95Z" fill="#FF7511"/>
<path d="M15.37 26.52C10.29 26.52 6.16003 22.39 6.16003 17.31C6.16003 12.23 10.29 8.10001 15.37 8.10001C20.45 8.10001 24.58 12.23 24.58 17.31C24.58 22.39 20.45 26.52 15.37 26.52ZM15.37 9.87001C11.27 9.87001 7.93003 13.21 7.93003 17.31C7.93003 21.41 11.27 24.75 15.37 24.75C19.47 24.75 22.81 21.41 22.81 17.31C22.8 13.21 19.47 9.87001 15.37 9.87001Z" fill="#FF7511"/>
<path d="M15.37 20.83C13.43 20.83 11.85 19.25 11.85 17.31C11.85 15.37 13.43 13.79 15.37 13.79C17.31 13.79 18.89 15.37 18.89 17.31C18.89 19.25 17.31 20.83 15.37 20.83ZM15.37 15.56C14.41 15.56 13.62 16.34 13.62 17.31C13.62 18.27 14.4 19.06 15.37 19.06C16.33 19.06 17.12 18.28 17.12 17.31C17.11 16.35 16.33 15.56 15.37 15.56Z" fill="#FF7511"/>
<path d="M16.8015 8.77806L12.4297 15.358L13.9122 16.343L18.2841 9.76311L16.8015 8.77806Z" fill="#FF7511"/>
<path d="M15.6921 13.7949L15.5271 15.5672L23.3931 16.2995L23.5581 14.5272L15.6921 13.7949Z" fill="#FF7511"/>
<path d="M18.6181 15.9323L16.9792 16.6269L20.0618 23.9004L21.7007 23.2059L18.6181 15.9323Z" fill="#FF7511"/>
<path d="M16.7293 18.4007L11.7847 24.5619L13.1729 25.676L18.1175 19.5148L16.7293 18.4007Z" fill="#FF7511"/>
<path d="M7.28112 17.5863L6.95752 19.3366L14.7256 20.7728L15.0492 19.0226L7.28112 17.5863Z" fill="#FF7511"/>
<path d="M11.2913 10.3272L9.59656 10.8717L12.0132 18.3933L13.7079 17.8488L11.2913 10.3272Z" fill="#FF7511"/>
<path d="M42.73 12.08H36.43L34.9 10.11H24.23V8.32999H35.77L37.3 10.3H42.73V12.08Z" fill="#FF7511"/>
<path d="M29.53 13.04H26.86V14.82H29.53V13.04Z" fill="#FF7511"/>
<path d="M42.7199 16.82L39.0599 16.77L37.5299 14.81H31.8199V13.04H38.3999L39.9399 15.01L42.7499 15.05L42.7199 16.82Z" fill="#FF7511"/>
<path d="M35.77 26.29H24.23V24.51H34.9L36.43 22.54H42.73V24.32H37.3L35.77 26.29Z" fill="#FF7511"/>
<path d="M29.53 19.81H26.86V21.59H29.53V19.81Z" fill="#FF7511"/>
<path d="M38.3999 21.58H31.8199V19.81H37.5299L39.0599 17.85L42.7199 17.8L42.7499 19.57L39.9399 19.61L38.3999 21.58Z" fill="#FF7511"/>
<path d="M23.0301 29.18H18.6801V30.96H23.0301V29.18Z" fill="#FF7511"/>
<path d="M36.1001 29.56H33.8101V31.34H36.1001V29.56Z" fill="#FF7511"/>
<path d="M35.98 3.35999H19.33V5.13999H35.98V3.35999Z" fill="#FF7511"/>
<path d="M43.2799 26.1L42.1899 24.7L44.2199 23.12V11.5L42.1899 9.91999L43.2799 8.51999L45.9999 10.63V23.99L43.2799 26.1Z" fill="#FF7511"/>
<path d="M4.42005 34.54H1.30005V0H4.10005L6.15005 1.65V33.08L4.42005 34.54ZM3.08005 32.77H3.77005L4.38005 32.26V2.5L3.48005 1.78H3.08005V32.77Z" fill="#FF7511"/>
<path d="M2.19 32.18H0V26.34L1.94 25.78L2.44 27.48L1.78 27.68V30.4H2.19V32.18Z" fill="#FF7511"/>
<path d="M1.78 18.47H0V22.04H1.78V18.47Z" fill="#FF7511"/>
<path d="M1.78 13.27H0V16.84H1.78V13.27Z" fill="#FF7511"/>
<path d="M1.78 8.07001H0V11.64H1.78V8.07001Z" fill="#FF7511"/>
</g>
<defs>
<clipPath id="clip0">
<rect width="46" height="34.54" fill="white"/>
</clipPath>
</defs>
</svg>
