<svg width="44" height="43" viewBox="0 0 44 43" fill="none" xmlns="http://www.w3.org/2000/svg">
<g clip-path="url(#clip0)">
<path d="M41.03 42.85H31.34V41.98C31.34 41.36 30.76 41.16 30.25 41.1V42.85H2.4C1.07 42.85 0 41.77 0 40.45V2.4C0 1.08 1.08 0 2.4 0H41.02C42.35 0 43.42 1.08 43.42 2.4V40.44C43.43 41.77 42.35 42.85 41.03 42.85ZM32.93 41.1H41.03C41.39 41.1 41.69 40.81 41.69 40.44V2.4C41.69 2.04 41.4 1.74 41.03 1.74H2.4C2.04 1.74 1.74 2.03 1.74 2.4V40.44C1.74 40.8 2.03 41.1 2.4 41.1H28.49V39.42L29.29 39.35C29.48 39.33 29.67 39.32 29.86 39.32C31.58 39.33 32.57 40.13 32.93 41.1Z" fill="#FF7511"/>
<path d="M8.63004 9.91H5.17004V11.66H8.63004V9.91Z" fill="#FF7511"/>
<path d="M8.63004 14.06H5.17004V15.81H8.63004V14.06Z" fill="#FF7511"/>
<path d="M8.63004 18.22H5.17004V19.97H8.63004V18.22Z" fill="#FF7511"/>
<path d="M8.63004 22.37H5.17004V24.12H8.63004V22.37Z" fill="#FF7511"/>
<path d="M8.63004 26.52H5.17004V28.27H8.63004V26.52Z" fill="#FF7511"/>
<path d="M8.63004 30.68H5.17004V32.43H8.63004V30.68Z" fill="#FF7511"/>
<path d="M38.26 9.91H34.8V11.66H38.26V9.91Z" fill="#FF7511"/>
<path d="M38.26 14.06H34.8V15.81H38.26V14.06Z" fill="#FF7511"/>
<path d="M38.26 18.22H34.8V19.97H38.26V18.22Z" fill="#FF7511"/>
<path d="M38.26 22.37H34.8V24.12H38.26V22.37Z" fill="#FF7511"/>
<path d="M38.26 26.52H34.8V28.27H38.26V26.52Z" fill="#FF7511"/>
<path d="M38.26 30.68H34.8V32.43H38.26V30.68Z" fill="#FF7511"/>
<path d="M18.6399 26.44C16.5499 26.39 15.0599 25.6 14.5299 24.27C14.0499 23.07 14.4399 21.67 15.6299 20.31C16.6799 19.11 18.2599 18.05 20.0899 17.32L20.7399 18.95C19.1699 19.57 17.8199 20.47 16.9599 21.46C16.2399 22.29 15.9499 23.08 16.1699 23.63C16.4199 24.26 17.37 24.66 18.7 24.69L18.6399 26.44Z" fill="#FF7511"/>
<path d="M23.34 25.52L22.7 23.9C25.88 22.64 27.74 20.39 27.27 19.22C27.02 18.59 26.08 18.19 24.75 18.16L24.79 16.41C26.87 16.46 28.37 17.25 28.9 18.58C29.81 20.87 27.37 23.92 23.34 25.52Z" fill="#FF7511"/>
<path d="M35.67 35.38H29.6L29.32 34.18H27.65L27.37 35.38H7.76001V7.47H13.83L14.11 8.67H15.78L16.06 7.47H35.68V35.38H35.67ZM31 33.63H33.93V9.22H17.44L17.16 10.42H12.71L12.43 9.22H9.51001V33.63H25.99L26.27 32.43H30.72L31 33.63Z" fill="#FF7511"/>
<path d="M12.97 34.5H11.22V36.43H12.97V34.5Z" fill="#FF7511"/>
<path d="M16.09 34.5H14.34V36.43H16.09V34.5Z" fill="#FF7511"/>
<path d="M19.21 34.5H17.46V36.43H19.21V34.5Z" fill="#FF7511"/>
<path d="M22.33 34.5H20.58V36.43H22.33V34.5Z" fill="#FF7511"/>
<path d="M32.9399 6.41H31.1899V8.34H32.9399V6.41Z" fill="#FF7511"/>
<path d="M30.1 6.41H28.35V8.34H30.1V6.41Z" fill="#FF7511"/>
<path d="M27.25 6.41H25.5V8.34H27.25V6.41Z" fill="#FF7511"/>
<path d="M24.41 6.41H22.66V8.34H24.41V6.41Z" fill="#FF7511"/>
<path d="M21.5699 6.41H19.8199V8.34H21.5699V6.41Z" fill="#FF7511"/>
<path d="M32.07 10.78H23.54V12.53H32.07V10.78Z" fill="#FF7511"/>
<path d="M21.45 10.78H19.02V12.53H21.45V10.78Z" fill="#FF7511"/>
<path d="M14.72 29.88H12.1V31.63H14.72V29.88Z" fill="#FF7511"/>
<path d="M24.77 29.88H17.61V31.63H24.77V29.88Z" fill="#FF7511"/>
</g>
<defs>
<clipPath id="clip0">
<rect width="43.43" height="42.85" fill="white"/>
</clipPath>
</defs>
</svg>
