<svg width="50" height="21" viewBox="0 0 50 21" fill="none" xmlns="http://www.w3.org/2000/svg">
<g clip-path="url(#clip0)">
<path d="M50 20.6H25.26V19.54C25.26 19.39 25.14 19.28 25 19.28C24.85 19.28 24.74 19.4 24.74 19.54V20.6H0V14.05H10.97V16.18H2.13V18.47H22.87C23.26 17.68 24.07 17.14 25.01 17.14C25.95 17.14 26.76 17.68 27.15 18.47H47.89V16.18H14.46V14.05H50V20.6Z" fill="#FF7511"/>
<path d="M50 15.21H47.87V10.79H46.81V5.95H47.87V2.13H29.13V0H50V8.07H48.94V8.66H50V15.21Z" fill="#FF7511"/>
<path d="M2.13 15.21H0V8.66H1.06V8.07H0V0H20.87V2.13H2.13V5.95H3.19V10.79H2.13V15.21Z" fill="#FF7511"/>
<path d="M12.82 12.73H7.12V3.63H12.83V12.73H12.82ZM9.24 10.61H10.69V5.75H9.24V10.61Z" fill="#FF7511"/>
<path d="M22.73 12.73H17.02V3.63H22.73V12.73ZM19.15 10.61H20.6V5.75H19.15V10.61Z" fill="#FF7511"/>
<path d="M32.63 12.73H26.92V3.63H32.63V12.73ZM29.05 10.61H30.5V5.75H29.05V10.61Z" fill="#FF7511"/>
<path d="M42.5299 12.73H36.8199V3.63H42.5299V12.73ZM38.9499 10.61H40.3999V5.75H38.9499V10.61Z" fill="#FF7511"/>
<path d="M27.6301 0H22.6801V2.13H27.6301V0Z" fill="#FF7511"/>
<path d="M46.12 17.33H43.99V19.54H46.12V17.33Z" fill="#FF7511"/>
<path d="M42.54 17.33H40.41V19.54H42.54V17.33Z" fill="#FF7511"/>
<path d="M38.96 17.33H36.83V19.54H38.96V17.33Z" fill="#FF7511"/>
<path d="M35.38 17.33H33.25V19.54H35.38V17.33Z" fill="#FF7511"/>
<path d="M31.8 17.33H29.67V19.54H31.8V17.33Z" fill="#FF7511"/>
<path d="M20.52 17.33H18.39V19.54H20.52V17.33Z" fill="#FF7511"/>
<path d="M16.9401 17.33H14.8101V19.54H16.9401V17.33Z" fill="#FF7511"/>
<path d="M13.36 17.33H11.23V19.54H13.36V17.33Z" fill="#FF7511"/>
<path d="M9.78002 17.33H7.65002V19.54H9.78002V17.33Z" fill="#FF7511"/>
<path d="M6.19995 17.33H4.06995V19.54H6.19995V17.33Z" fill="#FF7511"/>
</g>
<defs>
<clipPath id="clip0">
<rect width="50" height="20.6" fill="white"/>
</clipPath>
</defs>
</svg>
