<svg width="33" height="42" viewBox="0 0 33 42" fill="none" xmlns="http://www.w3.org/2000/svg">
<g clip-path="url(#clip0)">
<path d="M29.07 42H1.22C0.55 42 0 41.45 0 40.78V3.5C0 2.83 0.55 2.28 1.22 2.28H29.06C29.73 2.28 30.28 2.83 30.28 3.5V40.77C30.29 41.45 29.74 42 29.07 42ZM1.63 40.37H28.66V3.91H1.63V40.37Z" fill="#FF7511"/>
<path d="M29.92 41.66L28.83 40.45L30.9 38.58C30.92 38.56 30.94 38.51 30.94 38.48V1.63H3.52997C3.49997 1.64 3.44997 1.66 3.42997 1.68L1.54997 3.75L0.339966 2.65L2.22997 0.56C2.52997 0.23 3.05997 0 3.51997 0H31.36C32.03 0 32.58 0.55 32.58 1.22V38.5C32.58 38.95 32.34 39.48 32.01 39.79L29.92 41.66Z" fill="#FF7511"/>
<path d="M4.54003 11.58H2.91003V9.69L7.36003 4.84H11.42V6.47H8.07003L4.54003 10.33V11.58Z" fill="#FF7511"/>
<path d="M4.58 5.23999H2.88V6.86999H4.58V5.23999Z" fill="#FF7511"/>
<path d="M27.6 5.23999H25.9V6.86999H27.6V5.23999Z" fill="#FF7511"/>
<path d="M27.57 11.58H25.94V10.36L22.38 6.47H20.84V4.84H23.1L27.57 9.73V11.58Z" fill="#FF7511"/>
<path d="M4.58 32.68H2.88V34.31H4.58V32.68Z" fill="#FF7511"/>
<path d="M4.58 37.62H2.88V39.25H4.58V37.62Z" fill="#FF7511"/>
<path d="M4.86005 22.21C4.86005 22.86 5.38005 23.15 7.37005 23.15C9.02005 23.15 9.52005 22.97 9.52005 22.49C9.52005 21.98 9.17005 21.9 7.19005 21.8C4.53005 21.68 3.47005 21.26 3.47005 19.89C3.47005 18.55 4.84005 18.12 7.13005 18.12C9.43005 18.12 10.83 18.7 10.83 20.2H9.26005C9.26005 19.53 8.59005 19.36 6.96005 19.36C5.42005 19.36 5.05005 19.51 5.05005 19.96C5.05005 20.43 5.42005 20.52 7.20005 20.62C9.61005 20.75 11.1 20.88 11.1 22.43C11.1 24.06 9.56005 24.39 7.30005 24.39C4.80005 24.39 3.30005 23.96 3.30005 22.2H4.86005V22.21Z" fill="#FF7511"/>
<path d="M13.09 22.21C13.09 22.86 13.61 23.15 15.6 23.15C17.25 23.15 17.75 22.97 17.75 22.49C17.75 21.98 17.4 21.9 15.42 21.8C12.76 21.68 11.7 21.26 11.7 19.89C11.7 18.55 13.07 18.12 15.36 18.12C17.66 18.12 19.06 18.7 19.06 20.2H17.49C17.49 19.53 16.82 19.36 15.19 19.36C13.65 19.36 13.28 19.51 13.28 19.96C13.28 20.43 13.65 20.52 15.43 20.62C17.84 20.75 19.33 20.88 19.33 22.43C19.33 24.06 17.79 24.39 15.53 24.39C13.03 24.39 11.53 23.96 11.53 22.2H13.09V22.21Z" fill="#FF7511"/>
<path d="M27.29 21.26C27.29 23.34 25.9 24.31 24.32 24.31H19.89V18.2H24.32C25.9 18.21 27.29 19.19 27.29 21.26ZM25.72 21.26C25.72 19.78 24.92 19.52 23.73 19.52H21.46V23H23.73C24.92 23 25.72 22.74 25.72 21.26Z" fill="#FF7511"/>
</g>
<defs>
<clipPath id="clip0">
<rect width="32.58" height="42" fill="white"/>
</clipPath>
</defs>
</svg>
