<svg width="38" height="41" viewBox="0 0 38 41" fill="none" xmlns="http://www.w3.org/2000/svg">
<g clip-path="url(#clip0)">
<path d="M12.51 40.85H6.58995C6.48995 40.85 4.10995 40.75 2.26995 38.66C0.61995 36.78 -0.0500495 33.96 0.299951 30.28C0.969951 23.17 0.619951 20.83 0.379951 19.29C0.299951 18.76 0.229951 18.3 0.209951 17.77C0.199951 17.53 0.159951 17.23 0.129951 16.91C-0.0400495 15.45 -0.310049 13.25 1.21995 11.49C2.67995 9.81 5.38995 8.96 9.51995 8.88H9.53995H9.55995C13.69 8.96 16.41 9.81 17.87 11.49C19.41 13.25 19.1499 15.46 18.9799 16.92C18.9399 17.24 18.91 17.53 18.9 17.77C18.88 18.3 18.8099 18.76 18.7299 19.29C18.4899 20.84 18.1399 23.18 18.8099 30.28C19.1599 33.96 18.5 36.78 16.84 38.66C15 40.75 12.62 40.85 12.52 40.85H12.51ZM6.63995 39.23H12.4799C12.6499 39.22 14.32 39.09 15.64 37.57C16.97 36.04 17.49 33.65 17.19 30.45C16.5 23.14 16.87 20.68 17.12 19.06C17.2 18.56 17.26 18.16 17.27 17.72C17.28 17.42 17.32 17.09 17.36 16.75C17.51 15.44 17.6999 13.8 16.6399 12.58C15.5099 11.29 13.12 10.59 9.53995 10.52C5.95995 10.59 3.57995 11.28 2.45995 12.57C1.39995 13.78 1.59995 15.42 1.74995 16.73C1.78995 17.08 1.82995 17.42 1.83995 17.72C1.85995 18.16 1.91995 18.56 1.98995 19.06C2.23995 20.69 2.60995 23.15 1.91995 30.45C1.61995 33.65 2.13995 36.04 3.46995 37.57C4.79995 39.08 6.46995 39.22 6.63995 39.23Z" fill="#FF7511"/>
<path d="M10.36 9.70001H8.72998V12.83H10.36V9.70001Z" fill="#FF7511"/>
<path d="M9.58993 21.94H9.48993C8.13993 21.94 7.04993 20.84 7.04993 19.5V14.46C7.04993 13.11 8.14993 12.02 9.48993 12.02H9.58993C10.9399 12.02 12.0299 13.12 12.0299 14.46V19.5C12.0399 20.85 10.9399 21.94 9.58993 21.94ZM9.48993 13.64C9.03993 13.64 8.67993 14.01 8.67993 14.45V19.49C8.67993 19.94 9.04993 20.3 9.48993 20.3H9.58993C10.0399 20.3 10.3999 19.93 10.3999 19.49V14.45C10.3999 14 10.0299 13.64 9.58993 13.64H9.48993V13.64Z" fill="#FF7511"/>
<path d="M8.73789 20.8728L8.72266 26.5428L10.3527 26.5472L10.3679 20.8772L8.73789 20.8728Z" fill="#FF7511"/>
<path d="M11.67 10.15L10.95 7.67001H8.12998L7.40998 10.15L5.84998 9.69001L6.62998 7.02001C6.78998 6.45001 7.33998 6.04001 7.92998 6.04001H11.15C11.74 6.04001 12.29 6.45001 12.45 7.02001L13.23 9.69001L11.67 10.15Z" fill="#FF7511"/>
<path d="M7.01 35.09H5.38V36.72H7.01V35.09Z" fill="#FF7511"/>
<path d="M10.36 35.09H8.72998V36.72H10.36V35.09Z" fill="#FF7511"/>
<path d="M13.6999 35.09H12.0699V36.72H13.6999V35.09Z" fill="#FF7511"/>
<path d="M34.9499 18.72H33.3199V22.13H34.9499V18.72Z" fill="#FF7511"/>
<path d="M31.08 31.16H28.43C26.3 31.16 24.56 29.42 24.56 27.29V3.87C24.56 2.63 23.56 1.63 22.32 1.63H12.59C11.35 1.63 10.35 2.62 10.35 3.84V6.86H8.72998V3.84C8.72998 1.72 10.46 0 12.59 0H22.32C24.45 0 26.19 1.74 26.19 3.87V27.29C26.19 28.53 27.19 29.53 28.43 29.53H31.08C32.32 29.53 33.32 28.53 33.32 27.29V25.19H34.95V27.29C34.95 29.42 33.21 31.16 31.08 31.16Z" fill="#FF7511"/>
<path d="M35.35 19.24H32.91C31.45 19.24 30.26 18.05 30.26 16.59V11.7H38V16.59C38 18.05 36.81 19.24 35.35 19.24ZM31.89 13.33V16.59C31.89 17.15 32.35 17.61 32.91 17.61H35.35C35.91 17.61 36.37 17.15 36.37 16.59V13.33H31.89Z" fill="#FF7511"/>
<path d="M34.13 14.65H31.08V16.28H34.13V14.65Z" fill="#FF7511"/>
<path d="M37.12 12.52H35.49V8.05001H33.05V12.51H31.42V7.44001C31.42 6.88001 31.9 6.42001 32.48 6.42001H36.05C36.64 6.42001 37.11 6.88001 37.11 7.44001V12.52H37.12Z" fill="#FF7511"/>
</g>
<defs>
<clipPath id="clip0">
<rect width="38" height="40.85" fill="white"/>
</clipPath>
</defs>
</svg>
