<svg width="42" height="38" viewBox="0 0 42 38" fill="none" xmlns="http://www.w3.org/2000/svg">
<g clip-path="url(#clip0)">
<path d="M40.87 38H1.01C0.45 38 0 37.55 0 36.99V19.22C0 18.67 0.45 18.21 1.01 18.21H40.87C41.42 18.21 41.88 18.66 41.88 19.22V37C41.87 37.55 41.42 38 40.87 38ZM1.61 36.39H40.26V19.82H1.61V36.39Z" fill="#FF7511"/>
<path d="M33.36 35.62H8.33997V31.26H33.36V35.62ZM9.94997 34.01H31.75V32.87H9.94997V34.01Z" fill="#FF7511"/>
<path d="M7.05997 35.62H2.83997V31.26H7.06997V35.62H7.05997ZM4.44997 34.01H5.45997V32.87H4.44997V34.01Z" fill="#FF7511"/>
<path d="M7.05997 30.29H2.83997V25.93H7.06997V30.29H7.05997ZM4.44997 28.68H5.45997V27.54H4.44997V28.68Z" fill="#FF7511"/>
<path d="M7.05997 24.92H2.83997V20.56H7.06997V24.92H7.05997ZM4.44997 23.31H5.45997V22.17H4.44997V23.31Z" fill="#FF7511"/>
<path d="M12.56 24.92H8.33997V20.56H12.57V24.92H12.56ZM9.94997 23.31H10.96V22.17H9.94997V23.31Z" fill="#FF7511"/>
<path d="M18.06 24.92H13.83V20.56H18.06V24.92ZM15.45 23.31H16.46V22.17H15.45V23.31V23.31Z" fill="#FF7511"/>
<path d="M23.56 24.92H19.33V20.56H23.56V24.92ZM20.95 23.31H21.96V22.17H20.95V23.31Z" fill="#FF7511"/>
<path d="M29.06 24.92H24.83V20.56H29.06V24.92ZM26.45 23.31H27.46V22.17H26.45V23.31Z" fill="#FF7511"/>
<path d="M34.57 24.92H30.34V20.56H34.57V24.92ZM31.95 23.31H32.96V22.17H31.95V23.31Z" fill="#FF7511"/>
<path d="M38.79 30.29H30.34V25.93H38.79V30.29ZM31.95 28.68H37.18V27.54H31.95V28.68Z" fill="#FF7511"/>
<path d="M12.56 30.29H8.33997V25.93H12.57V30.29H12.56ZM9.94997 28.68H10.96V27.54H9.94997V28.68Z" fill="#FF7511"/>
<path d="M18.06 30.29H13.83V25.93H18.06V30.29ZM15.45 28.68H16.46V27.54H15.45V28.68V28.68Z" fill="#FF7511"/>
<path d="M23.56 30.29H19.33V25.93H23.56V30.29ZM20.95 28.68H21.96V27.54H20.95V28.68Z" fill="#FF7511"/>
<path d="M29.06 30.29H24.83V25.93H29.06V30.29ZM26.45 28.68H27.46V27.54H26.45V28.68Z" fill="#FF7511"/>
<path d="M38.7901 35.62H34.5601V31.26H38.7901V35.62V35.62ZM36.1801 34.01H37.1901V32.87H36.1801V34.01Z" fill="#FF7511"/>
<path d="M11.26 19.02H9.65002V17.91H5.76002V19.02H4.15002V17.31C4.15002 16.76 4.60002 16.3 5.16002 16.3H10.26C10.81 16.3 11.27 16.75 11.27 17.31V19.02H11.26Z" fill="#FF7511"/>
<path d="M8.51002 17.1H6.90002V15.56C6.90002 14.27 7.98002 13.21 9.31002 13.21H32.96C33.4 13.21 33.76 12.85 33.76 12.41V11.61C33.76 11.17 33.4 10.81 32.96 10.81H21.76C20.43 10.81 19.35 9.73001 19.35 8.40001V6.64001H20.96V8.38001C20.96 8.82001 21.32 9.18002 21.76 9.18002H32.96C34.29 9.18002 35.37 10.26 35.37 11.59V12.39C35.37 13.72 34.29 14.8 32.96 14.8H9.31002C8.87002 14.8 8.51002 15.14 8.51002 15.54V17.1Z" fill="#FF7511"/>
<path d="M21.3499 7.45H18.9399C17.4999 7.45 16.3199 6.28 16.3199 4.83V0H23.9699V4.83C23.9699 6.27 22.7899 7.45 21.3499 7.45ZM17.9299 1.61V4.83C17.9299 5.38 18.3799 5.84 18.9399 5.84H21.3499C21.8999 5.84 22.3599 5.39 22.3599 4.83V1.61H17.9299Z" fill="#FF7511"/>
<path d="M20.14 2.92001H17.12V4.53001H20.14V2.92001Z" fill="#FF7511"/>
</g>
<defs>
<clipPath id="clip0">
<rect width="41.87" height="38" fill="white"/>
</clipPath>
</defs>
</svg>
