<svg width="38" height="42" viewBox="0 0 38 42" fill="none" xmlns="http://www.w3.org/2000/svg">
<g clip-path="url(#clip0)">
<path d="M24.4001 5.62H13.3801C13.0701 5.62 12.7101 5.49 12.4801 5.28L11.0001 3.97C10.7401 3.74 10.5701 3.37 10.5701 3.02V1.01C10.5701 0.45 11.0201 0 11.5801 0H26.2001C26.7601 0 27.2101 0.45 27.2101 1.01V3.02C27.2101 3.37 27.0401 3.74 26.7801 3.97L25.3001 5.28C25.0701 5.49 24.7101 5.62 24.4001 5.62ZM13.4701 4.02H24.3101L25.6101 2.87V1.6H12.1701V2.87L13.4701 4.02Z" fill="#FF7511"/>
<path d="M2.54006 16.32H0.940063V14.34C1.56006 8.14999 4.30006 4.82999 6.49006 3.14999C8.89006 1.29999 11.1601 0.939993 11.2501 0.929993L11.4901 2.50999L11.3701 1.71999L11.4901 2.50999C11.1701 2.55999 3.61006 3.85999 2.54006 14.45V16.32V16.32Z" fill="#FF7511"/>
<path d="M5.79006 15.55L4.19006 15.54C4.23006 10.09 6.45006 7.11998 8.31006 5.58998C10.3401 3.90998 12.3801 3.54998 12.4601 3.53998L12.7301 5.11998L12.6001 4.31998L12.7401 5.10998C12.4501 5.14998 5.85006 6.42998 5.79006 15.55Z" fill="#FF7511"/>
<path d="M7.85007 34.17C7.02007 34.17 6.32007 33.55 6.22007 32.72L4.60007 19.63C4.49007 18.73 5.13007 17.91 6.03007 17.8L9.46007 17.38C10.3701 17.27 11.1901 17.92 11.2901 18.81L12.9001 31.9C12.9501 32.34 12.8301 32.77 12.5601 33.11C12.2901 33.46 11.9001 33.68 11.4601 33.73L8.03007 34.15C7.98007 34.16 7.91007 34.17 7.85007 34.17ZM9.67007 18.96L6.23007 19.38C6.21007 19.38 6.19007 19.41 6.19007 19.43L7.80007 32.53C7.80007 32.56 7.83007 32.57 7.85007 32.57H7.86007L11.2901 32.15C11.2901 32.15 11.3101 32.15 11.3201 32.13C11.3301 32.11 11.3301 32.1 11.3301 32.1L9.71007 19.01C9.71007 18.98 9.68007 18.96 9.67007 18.96Z" fill="#FF7511"/>
<path d="M6.53004 32.69L3.19004 30.74C2.88004 30.56 2.63004 30.19 2.59004 29.83L2.06004 25.5L1.30004 24.77C1.08004 24.56 0.910042 24.23 0.880042 23.93L0.0200416 16.93C-0.0499584 16.38 0.350042 15.87 0.900042 15.8L5.80004 15.2C6.27004 15.14 6.74004 15.41 6.93004 15.84L7.93004 18.14L6.46004 18.78L5.60004 16.84L1.67004 17.32L2.45004 23.66L3.21004 24.39C3.43004 24.6 3.60004 24.93 3.63004 25.23L4.15004 29.46L7.33004 31.31L6.53004 32.69Z" fill="#FF7511"/>
<path d="M37.06 16.32H35.46V14.46C34.39 3.80999 26.59 2.51999 26.51 2.50999L26.75 0.929993C26.85 0.939993 29.11 1.29999 31.51 3.14999C33.7 4.83999 36.44 8.14999 37.05 14.34V14.42V16.32H37.06Z" fill="#FF7511"/>
<path d="M32.21 15.55C32.15 6.37999 25.34 5.11999 25.27 5.09999L25.54 3.51999C25.63 3.52999 27.66 3.88999 29.69 5.56999C31.55 7.09999 33.77 10.08 33.81 15.52L32.21 15.55Z" fill="#FF7511"/>
<path d="M30.1501 34.17C30.0801 34.17 30.0201 34.17 29.9501 34.16L26.5201 33.74C26.0801 33.69 25.7001 33.47 25.4201 33.12C25.1501 32.77 25.0301 32.34 25.0801 31.91L26.6901 18.82C26.8001 17.93 27.6101 17.27 28.5201 17.39L31.9501 17.81C32.8501 17.92 33.4901 18.74 33.3801 19.64L31.7701 32.73C31.6901 33.55 30.9801 34.17 30.1501 34.17ZM28.3401 18.97C28.3201 18.97 28.2901 18.99 28.2901 19.01L26.6801 32.1C26.6801 32.1 26.6801 32.12 26.6901 32.13C26.7001 32.15 26.7201 32.15 26.7201 32.15L30.1601 32.57C30.1801 32.57 30.2001 32.55 30.2101 32.53L31.8201 19.44C31.8201 19.42 31.8001 19.39 31.7801 19.39L28.3401 18.97Z" fill="#FF7511"/>
<path d="M31.4701 32.69L30.6601 31.31L33.8401 29.46L34.3601 25.23C34.4001 24.93 34.5601 24.6 34.7801 24.39L35.5401 23.66L36.3201 17.32L32.3901 16.84L31.5401 18.79L30.0701 18.15L31.0701 15.85C31.2601 15.42 31.7301 15.15 32.2001 15.21L37.1001 15.81C37.6501 15.88 38.0501 16.38 37.9801 16.94L37.1201 23.94C37.0801 24.24 36.9201 24.57 36.7001 24.78L35.9401 25.51L35.4101 29.84C35.3701 30.2 35.1201 30.57 34.8101 30.75L31.4701 32.69Z" fill="#FF7511"/>
<path d="M28.8501 40.14H22.9701V38.54H28.8501C29.0701 38.54 29.3701 38.33 29.4501 38.12L32.2701 30.58L33.7701 31.14L30.9501 38.68C30.6301 39.51 29.7301 40.14 28.8501 40.14Z" fill="#FF7511"/>
<path d="M21.7 41.59H18.46C17.32 41.59 16.39 40.66 16.39 39.52V39.17C16.39 38.03 17.32 37.1 18.46 37.1H21.7C22.84 37.1 23.77 38.03 23.77 39.17V39.52C23.77 40.66 22.84 41.59 21.7 41.59ZM18.46 38.69C18.21 38.69 17.99 38.9 17.99 39.16V39.51C17.99 39.76 18.2 39.98 18.46 39.98H21.7C21.95 39.98 22.17 39.77 22.17 39.51V39.16C22.17 38.91 21.96 38.69 21.7 38.69H18.46Z" fill="#FF7511"/>
</g>
<defs>
<clipPath id="clip0">
<rect width="38" height="41.59" fill="white"/>
</clipPath>
</defs>
</svg>
