<svg width="44" height="37" viewBox="0 0 44 37" fill="none" xmlns="http://www.w3.org/2000/svg">
<g clip-path="url(#clip0)">
<path d="M44 34.39H0V26.7H0.88V24.98H0V2.48999H44V7.63999H42.55V10.83H44V34.39ZM1.69 32.7H42.31V12.53H40.86V5.94999H42.31V4.17999H1.69V23.28H2.57V28.39H1.69V32.7Z" fill="#FF7511"/>
<path d="M9.14005 3.34H7.44005V1.69H5.63005V3.34H3.93005V0H9.14005V3.34Z" fill="#FF7511"/>
<path d="M15.69 3.34H14V1.69H12.18V3.34H10.49V0H15.69V3.34Z" fill="#FF7511"/>
<path d="M22.24 3.34H20.55V1.69H18.73V3.34H17.04V0H22.24V3.34Z" fill="#FF7511"/>
<path d="M35.99 36.63H26.52V33.55H28.21V34.94H34.3V33.55H35.99V36.63Z" fill="#FF7511"/>
<path d="M36.48 29.62H26.02V19.16H36.48V29.62V29.62ZM27.72 27.92H34.79V20.85H27.72V27.92Z" fill="#FF7511"/>
<path d="M28.8701 17.99H27.1801V20.01H28.8701V17.99Z" fill="#FF7511"/>
<path d="M32.1 17.99H30.41V20.01H32.1V17.99Z" fill="#FF7511"/>
<path d="M35.32 17.99H33.63V20.01H35.32V17.99Z" fill="#FF7511"/>
<path d="M37.66 20.32H35.64V22.01H37.66V20.32Z" fill="#FF7511"/>
<path d="M37.66 23.54H35.64V25.23H37.66V23.54Z" fill="#FF7511"/>
<path d="M37.66 26.76H35.64V28.45H37.66V26.76Z" fill="#FF7511"/>
<path d="M35.32 28.77H33.63V30.79H35.32V28.77Z" fill="#FF7511"/>
<path d="M32.1 28.77H30.41V30.79H32.1V28.77Z" fill="#FF7511"/>
<path d="M28.8701 28.77H27.1801V30.79H28.8701V28.77Z" fill="#FF7511"/>
<path d="M26.87 26.76H24.85V28.45H26.87V26.76Z" fill="#FF7511"/>
<path d="M26.87 23.54H24.85V25.23H26.87V23.54Z" fill="#FF7511"/>
<path d="M26.87 20.32H24.85V22.01H26.87V20.32Z" fill="#FF7511"/>
<path d="M22.6 15H4.54004V6.67999H22.6V15ZM6.24004 13.31H20.91V8.36999H6.24004V13.31Z" fill="#FF7511"/>
<path d="M21.75 9.98999H5.39001V11.68H21.75V9.98999Z" fill="#FF7511"/>
<path d="M26.7199 10.98C25.5299 10.98 24.5699 10.01 24.5699 8.82999C24.5699 7.63999 25.5399 6.67999 26.7199 6.67999C27.9099 6.67999 28.8699 7.64999 28.8699 8.82999C28.8799 10.02 27.9099 10.98 26.7199 10.98ZM26.7199 8.36999C26.4699 8.36999 26.2599 8.57999 26.2599 8.82999C26.2599 9.07999 26.4699 9.28999 26.7199 9.28999C26.9699 9.28999 27.1799 9.07999 27.1799 8.82999C27.1799 8.56999 26.9799 8.36999 26.7199 8.36999Z" fill="#FF7511"/>
<path d="M36.65 15.89C35.46 15.89 34.5 14.92 34.5 13.74C34.5 12.56 35.47 11.59 36.65 11.59C37.84 11.59 38.8 12.56 38.8 13.74C38.8 14.92 37.83 15.89 36.65 15.89ZM36.65 13.28C36.4 13.28 36.19 13.49 36.19 13.74C36.19 13.99 36.4 14.2 36.65 14.2C36.9 14.2 37.11 13.99 37.11 13.74C37.11 13.49 36.9 13.28 36.65 13.28Z" fill="#FF7511"/>
<path d="M22.31 17.14H20.48V18.83H22.31V17.14Z" fill="#FF7511"/>
<path d="M27.25 13.31H25.42V15H27.25V13.31Z" fill="#FF7511"/>
<path d="M31.7699 13.31H29.9399V15H31.7699V13.31Z" fill="#FF7511"/>
<path d="M32.17 23.54H30.34V25.23H32.17V23.54Z" fill="#FF7511"/>
<path d="M18.8 17.14H16.97V18.83H18.8V17.14Z" fill="#FF7511"/>
<path d="M22.31 19.84H20.48V21.53H22.31V19.84Z" fill="#FF7511"/>
<path d="M18.8 19.84H16.97V21.53H18.8V19.84Z" fill="#FF7511"/>
<path d="M22.31 22.53H20.48V24.22H22.31V22.53Z" fill="#FF7511"/>
<path d="M18.8 22.53H16.97V24.22H18.8V22.53Z" fill="#FF7511"/>
<path d="M39.19 10.98H30.92V6.67999H39.19V10.98ZM32.61 9.28999H37.5V8.36999H32.61V9.28999Z" fill="#FF7511"/>
<path d="M8.82995 30.61H4.31995V24.34H8.83995V30.61H8.82995ZM6.00995 28.91H7.13995V26.02H6.00995V28.91Z" fill="#FF7511"/>
<path d="M7.41998 23.7H5.72998V25.18H7.41998V23.7Z" fill="#FF7511"/>
<path d="M7.41998 29.83H5.72998V31.31H7.41998V29.83Z" fill="#FF7511"/>
<path d="M15 30.57H10.48V24.3H15V30.57ZM12.18 28.88H13.31V25.99H12.18V28.88Z" fill="#FF7511"/>
<path d="M13.59 23.66H11.9V25.14H13.59V23.66Z" fill="#FF7511"/>
<path d="M13.59 29.8H11.9V31.28H13.59V29.8Z" fill="#FF7511"/>
<path d="M13.59 22.41H4.51001V17.6H13.59V22.41ZM6.21001 20.72H11.9V19.29H6.21001V20.72Z" fill="#FF7511"/>
<path d="M22.31 29.12H16.97V30.81H22.31V29.12Z" fill="#FF7511"/>
<path d="M22.24 33.55H20.55V35.79H22.24V33.55Z" fill="#FF7511"/>
<path d="M18.73 33.55H17.04V35.79H18.73V33.55Z" fill="#FF7511"/>
<path d="M15.22 33.55H13.53V35.79H15.22V33.55Z" fill="#FF7511"/>
</g>
<defs>
<clipPath id="clip0">
<rect width="44" height="36.63" fill="white"/>
</clipPath>
</defs>
</svg>
