<svg width="32" height="41" viewBox="0 0 32 41" fill="none" xmlns="http://www.w3.org/2000/svg">
<g clip-path="url(#clip0)">
<path d="M28.04 40.51H1.18C0.53 40.51 0 39.99 0 39.33V3.38001C0 2.73001 0.53 2.20001 1.18 2.20001H28.04C28.69 2.20001 29.22 2.73001 29.22 3.38001V39.33C29.22 39.99 28.69 40.51 28.04 40.51ZM1.57 38.94H27.64V3.77001H1.57V38.94Z" fill="#FF7511"/>
<path d="M28.87 40.19L27.82 39.02L29.82 37.22C29.84 37.2 29.86 37.15 29.86 37.12V1.57H3.40996C3.37996 1.58 3.32996 1.6 3.30996 1.62L1.48996 3.62L0.329956 2.56L2.14996 0.55C2.43996 0.23 2.94996 0 3.38996 0H30.25C30.9 0 31.43 0.53 31.43 1.18V37.13C31.43 37.57 31.2 38.08 30.88 38.37L28.87 40.19Z" fill="#FF7511"/>
<path d="M4.38006 11.17H2.81006V9.35001L7.10006 4.67001H11.0201V6.25001H7.79006L4.38006 9.96001V11.17Z" fill="#FF7511"/>
<path d="M4.41002 5.05002H2.77002V6.62002H4.41002V5.05002Z" fill="#FF7511"/>
<path d="M26.63 5.04999H24.99V6.61999H26.63V5.04999Z" fill="#FF7511"/>
<path d="M26.59 11.17H25.02V9.99001L21.59 6.25001H20.1V4.67001H22.28L26.59 9.38001V11.17Z" fill="#FF7511"/>
<path d="M16.6 27.93L16.32 26.38C20.89 25.56 24.2 21.59 24.2 16.94C24.2 11.65 19.9 7.35001 14.61 7.35001C9.31995 7.35001 5.01995 11.65 5.01995 16.94C5.01995 20.46 6.93995 23.69 10.04 25.37L9.28995 26.75C5.68995 24.79 3.44995 21.03 3.44995 16.93C3.44995 10.77 8.45995 5.76001 14.62 5.76001C20.78 5.76001 25.79 10.77 25.79 16.93C25.77 22.36 21.92 26.98 16.6 27.93Z" fill="#FF7511"/>
<path d="M14.61 19.94C12.96 19.94 11.61 18.59 11.61 16.94C11.61 15.29 12.96 13.94 14.61 13.94C16.26 13.94 17.61 15.29 17.61 16.94C17.61 18.6 16.26 19.94 14.61 19.94ZM14.61 15.52C13.82 15.52 13.18 16.16 13.18 16.95C13.18 17.74 13.82 18.38 14.61 18.38C15.4 18.38 16.04 17.74 16.04 16.95C16.04 16.16 15.4 15.52 14.61 15.52Z" fill="#FF7511"/>
<path d="M26.6301 36.16H13.8201V33.58L8.63005 30.04H2.18005V28.46H9.11005L15.4001 32.75V34.59H26.6301V36.16Z" fill="#FF7511"/>
<path d="M4.41002 31.53H2.77002V33.1H4.41002V31.53Z" fill="#FF7511"/>
<path d="M4.41002 36.29H2.77002V37.86H4.41002V36.29Z" fill="#FF7511"/>
<path d="M8.45997 36.51C7.08997 36.51 5.96997 35.39 5.96997 34.02C5.96997 32.65 7.08997 31.53 8.45997 31.53C9.82997 31.53 10.95 32.65 10.95 34.02C10.95 35.39 9.82997 36.51 8.45997 36.51ZM8.45997 33.1C7.94997 33.1 7.53997 33.51 7.53997 34.02C7.53997 34.53 7.94997 34.94 8.45997 34.94C8.96997 34.94 9.37997 34.53 9.37997 34.02C9.37997 33.51 8.95997 33.1 8.45997 33.1Z" fill="#FF7511"/>
<path d="M13.61 32.04L12.12 31.54L15.04 22.88C15.06 22.83 15.06 22.79 15.07 22.75L14.63 22.48C14.6 22.5 14.56 22.53 14.53 22.56L7.5 29.76L6.37 28.66L13.39 21.47C13.96 20.89 14.74 20.71 15.28 21.04L16.05 21.51C16.59 21.84 16.79 22.61 16.53 23.38L13.61 32.04Z" fill="#FF7511"/>
<path d="M19.8801 35.37H18.3101V29.29H21.2701V27.83H25.5001V35.12H23.9201V29.41H22.8501V30.86H19.8801V35.37Z" fill="#FF7511"/>
<path d="M24.98 31.81H21.36V33.38H24.98V31.81Z" fill="#FF7511"/>
</g>
<defs>
<clipPath id="clip0">
<rect width="31.43" height="40.51" fill="white"/>
</clipPath>
</defs>
</svg>
